<svg version="1.0" xmlns="http://www.w3.org/2000/svg" width="933.333" height="933.333" viewBox="0 0 700 700"><path d="M23.5 4.1C25.7 6.3 60 40.6 99.6 80.3l72.1 72.2h165.2c90.8.1 165.1-.2 165.1-.5s-34.1-34.6-75.8-76.3L350.5 0H19.6l3.9 4.1zM390 .5c0 .3 69.8 70.3 155 155.6l155 155.1V0H545c-85.2 0-155 .2-155 .5zM0 350.5v331L165.5 516c91-91 165.3-165.5 165.2-165.7-.6-.6-323.2-323.4-326.6-326.8L0 19.6v330.9zm200.4-170.4c-.2.4 33.4 34.5 74.7 75.9l75.1 75.2 75.3-75.4c41.5-41.4 75.2-75.5 74.9-75.7-.6-.7-299.6-.7-300 0zm251.8 87.2C407 312.6 370 350 370 350.3c0 .4 36.9 37.7 82.1 82.9l82.1 82.1 82.9-82.9 82.9-82.9-82.2-82.2C572.5 222 535.3 185 535 185c-.3 0-37.5 37-82.8 82.3zM185.3 534.5C94.9 625 21 699.2 21 699.5c0 .3 148.4.5 329.7.5h329.8l-165-165C424.8 444.2 350.3 370 350 370c-.3 0-74.4 74.1-164.7 164.5zm441.4-73.1c-39.5 39.6-72 72.4-72.4 72.8-.3.4 32.4 33.6 72.6 73.9l73.1 73.2V535.1c0-80.3-.3-146-.7-146-.5.1-33.1 32.6-72.6 72.3z"/></svg>